HIERARCHY
ROOT Hips
{
  OFFSET 195.248 105.487 190.781
  CHANNELS 6 Xposition Yposition Zposition Zrotation Xrotation Yrotation
  JOINT ToSpine
  {
    OFFSET -2.69724 7.43032 -0.144315
    CHANNELS 3 Zrotation Xrotation Yrotation
    JOINT Spine
    {
      OFFSET -0.0310711 10.7595 1.96963
      CHANNELS 3 Zrotation Xrotation Yrotation
      JOINT Spine1
      {
        OFFSET 19.9056 3.91189 0.764692
        CHANNELS 3 Zrotation Xrotation Yrotation
        JOINT Neck
        {
          OFFSET 25.9749 7.03908 -0.130764
          CHANNELS 3 Zrotation Xrotation Yrotation
          JOINT Head
          {
            OFFSET 9.52751 0.295786 -0.907742
            CHANNELS 3 Zrotation Xrotation Yrotation
            End Site
            {
              OFFSET 16.4037 0.713936 2.7358
            }
          }
        }
        JOINT LeftShoulder
        {
          OFFSET 17.7449 4.33886 11.7777
          CHANNELS 3 Zrotation Xrotation Yrotation
          JOINT LeftArm
          {
            OFFSET 0.911315 1.27913 9.80584
            CHANNELS 3 Zrotation Xrotation Yrotation
            JOINT LeftForeArm
            {
              OFFSET 28.6126 1.18197 -3.53199
              CHANNELS 3 Zrotation Xrotation Yrotation
              JOINT LeftHand
              {
                OFFSET 27.5088 0.0218783 0.327423
                CHANNELS 3 Zrotation Xrotation Yrotation
                End Site
                {
                  OFFSET 18.6038 -0.000155887 0.382096
                }
              }
            }
          }
        }
        JOINT RightShoulder
        {
          OFFSET 17.1009 2.89543 -12.2328
          CHANNELS 3 Zrotation Xrotation Yrotation
          JOINT RightArm
          {
            OFFSET 1.4228 0.178766 -10.211
            CHANNELS 3 Zrotation Xrotation Yrotation
            JOINT RightForeArm
            {
              OFFSET 28.733 1.87905 2.64907
              CHANNELS 3 Zrotation Xrotation Yrotation
              JOINT RightHand
              {
                OFFSET 27.4588 0.290562 -0.101845
                CHANNELS 3 Zrotation Xrotation Yrotation
                End Site
                {
                  OFFSET 17.8396 -0.255518 -0.000602873
                }
              }
            }
          }
        }
      }
    }
  }
  JOINT LeftUpLeg
  {
    OFFSET -5.61296 -2.22332 -10.2353
    CHANNELS 3 Zrotation Xrotation Yrotation
    JOINT LeftLeg
    {
      OFFSET 2.56703 -44.7417 -7.93097
      CHANNELS 3 Zrotation Xrotation Yrotation
      JOINT LeftFoot
      {
        OFFSET 3.16933 -46.5642 -3.96578
        CHANNELS 3 Zrotation Xrotation Yrotation
        JOINT LeftToeBase
        {
          OFFSET 0.346054 -6.02161 12.8035
          CHANNELS 3 Zrotation Xrotation Yrotation
          End Site
          {
            OFFSET 0.134235 -1.35082 5.13018
          }
        }
      }
    }
  }
  JOINT RightUpLeg
  {
    OFFSET -5.7928 -1.72406 10.6446
    CHANNELS 3 Zrotation Xrotation Yrotation
    JOINT RightLeg
    {
      OFFSET -2.57161 -44.7178 -7.85259
      CHANNELS 3 Zrotation Xrotation Yrotation
      JOINT RightFoot
      {
        OFFSET -3.10148 -46.5936 -4.03391
        CHANNELS 3 Zrotation Xrotation Yrotation
        JOINT RightToeBase
        {
          OFFSET -0.0828122 -6.13587 12.8035
          CHANNELS 3 Zrotation Xrotation Yrotation
          End Site
          {
            OFFSET -0.131328 -1.35082 5.13018
          }
        }
      }
    }
  }
}
MOTION
Frames:	19
Frame Time:	0.0333333
203.71 85.4299 200.296 -39.5211 32.4509 148.871 -70.1915 0 88.8779 161.254 37.1405 -74.9948 18.7161 22.5239 -7.02905 -170.064 21.924 169.012 -134.967 58.2446 176.98 0.518498 -19.5119 -15.8381 -96.9968 38.6779 -179.856 -0.715323 8.93524 1.30963 6.7085 -0.501078 -6.5657 0.433507 11.1594 9.32719 -112.768 -26.5116 149.6 1.11762 -2.74508 13.705 14.2226 0.416231 3.12607 9.70531 -3.73609 92.518 -17.2089 79.6096 14.418 9.84764 9.90724 -1.42721 -10.9695 -43.0987 4.99175 10.168 -2.84097 82.2607 20.086 80.3776 -13.588 -6.59287 -4.29002 1.03033 10.5565 -19.0013 -18.3705 
203.009 85.7905 199.267 -37.8437 31.8561 148.81 -70.1915 0 88.8779 161.626 38.2563 -74.5405 18.437 23.0267 -6.48364 -170.052 21.9644 169.565 -134.525 58.3441 177.214 0.493249 -19.7472 -15.9734 -96.2654 38.1223 -179.868 -1.41156 11.2007 1.37726 10.4958 -0.695533 -5.70804 0.38434 10.8996 9.7767 -111.86 -26.1915 149.866 1.63832 -6.16654 13.2726 13.946 0.139148 0.827222 10.1373 -3.37769 91.5555 -16.8731 79.4111 13.9682 10.1349 8.32417 -1.46169 -10.89 -42.9964 5.26439 10.2814 -1.78332 81.753 17.8941 79.6648 -12.5303 -7.13251 -4.51014 1.07809 10.8379 -20.6497 -17.9752 
201.779 86.8102 198.136 -37.6445 30.7684 148.896 -70.1915 0 88.8779 161.713 38.8635 -73.5597 17.5927 23.1049 -6.62176 -167.258 21.8494 168.087 -132.857 58.35 178.819 0.423697 -21.3739 -15.7124 -95.6405 38.9547 -177.699 -1.42386 15.8722 1.07031 12.2345 -0.508081 -2.97665 0.0322299 10.6602 13.3376 -110.38 -25.2031 149.396 0.995275 -6.95496 12.3109 13.999 0.0130021 -0.253483 8.59237 -4.12862 91.5818 -14.0803 77.7176 11.096 10.2441 7.34282 -1.46656 -10.7944 -42.82 5.52161 8.83861 -1.98113 82.0969 15.457 78.4045 -10.2784 -7.33051 -5.02504 1.09843 11.1638 -21.9247 -18.2341 
200.47 88.0277 196.684 -37.4739 30.6253 149.104 -70.1915 0 88.8779 161.048 39.7127 -72.5373 18.7641 22.5671 -6.10774 -171.568 21.996 171.682 -136.927 59.2413 179.981 0.518293 -19.0184 -16.1957 -94.2934 39.7781 -177.448 -1.03358 19.9398 -0.611026 12.7074 -0.321915 -1.17742 0.247231 11.3588 11.1448 -109.204 -30.2837 148.169 0.379561 -2.99626 12.2504 16.644 -0.171001 -1.579 6.2583 -3.78452 91.3228 -12.3907 76.0998 8.4122 10.0394 5.71136 -1.40526 -10.5719 -42.2365 5.89786 6.37763 -1.34758 81.9396 12.7894 76.4695 -7.47208 -7.17243 -5.40478 1.0895 11.5954 -23.8599 -18.243 
198.805 89.3864 194.966 -37.1503 30.3891 149.21 -70.1915 0 88.8779 161.231 40.7136 -71.6265 18.0123 22.5685 -5.87724 -170.916 22.0315 170.887 -134.661 58.7773 178.558 0.356364 -19.8231 -17.4891 -94.2914 39.2056 -172.259 -1.04488 21.1308 -3.55956 13.5334 -0.36904 -1.39054 -0.0472978 10.5637 14.1744 -105.434 -32.0861 147.186 -0.706883 0.418791 13.4911 19.3935 -0.715956 -4.6935 3.52199 -3.64127 91.012 -10.2075 73.8083 6.12756 9.7227 5.20918 -1.34569 -10.9351 -43.029 5.07287 3.55052 -1.08305 81.606 10.5438 74.0924 -4.79024 -7.2161 -5.59204 1.0944 11.9254 -25.4371 -18.0427 
196.89 90.7023 192.877 -36.3123 29.8852 149.211 -70.1915 0 88.8779 160.497 42.5021 -69.8066 17.824 22.4465 -5.57419 -173.284 21.8776 172.57 -136.176 58.8965 178.578 0.330167 -18.2321 -19.434 -92.8107 39.6852 -168.291 -0.943665 20.5851 -6.90378 14.7932 -0.340718 -0.915427 -0.254667 10.5114 16.3291 -101.992 -33.9254 146.019 -2.06739 3.27688 13.2034 19.3719 -0.864612 -5.59763 1.20534 -2.98531 90.8681 -8.87884 71.5067 3.58137 9.50151 5.97963 -1.31697 -11.7448 -44.8507 3.62076 0.895549 -0.243309 81.5378 8.592 71.4852 -2.98934 -7.26302 -5.57603 1.09771 12.392 -27.4757 -17.97 
194.833 91.8317 190.439 -33.8846 30.6186 148.164 -70.1915 0 88.8779 160.403 45.3103 -68.94 17.2046 23.5996 -5.71321 -173.484 21.7993 172.935 -135.392 58.5208 177.033 0.280253 -17.3163 -21.4814 -90.1933 38.5017 -163.018 -1.47645 14.6761 -10.1014 14.213 -0.58769 -2.9554 -0.535608 10.5599 19.1874 -97.7383 -34.3007 142.717 -3.94 8.46751 14.0417 17.3175 -0.736467 -5.38058 -0.614871 -0.640685 90.7555 -8.03663 69.8358 2.22301 9.49875 5.55572 -1.31225 -11.7117 -44.6112 3.44101 -1.49 2.05553 81.2975 6.90696 68.2754 -1.27715 -7.26954 -6.1646 1.10304 12.4075 -27.753 -17.525 
192.216 93.1148 188.028 -32.8657 30.3004 146.862 -70.1915 0 88.8779 158.829 48.0686 -66.9113 16.9428 23.4923 -5.80472 -175.254 21.5002 174.797 -137.258 58.7733 177.933 0.688258 -13.4999 -21.5994 -84.7506 42.4804 -160.947 -1.20589 13.2688 -11.332 13.1547 -0.628693 -3.67203 -0.668553 10.8378 20.3174 -92.0002 -34.7037 139.379 -5.48064 13.8175 16.4955 15.6054 -0.640731 -5.23458 -3.08054 -0.718296 91.1073 -7.53898 68.1554 0.0755173 7.89712 6.27089 -1.0409 -11.5751 -44.7012 4.21713 -4.64293 1.92536 81.7108 5.78642 65.1636 0.257383 -7.53668 -6.5803 1.12375 12.5989 -28.7612 -17.0008 
188.773 93.8357 185.398 -32.5541 30.7145 145.596 -70.1915 0 88.8779 158.002 49.7712 -65.922 15.3769 22.8548 -4.22023 -178.359 21.1338 179.602 -142.182 59.9859 -179.596 0.868233 -11.4535 -25.1233 -82.0305 39.4976 -154.478 -2.40284 5.69215 -13.0005 13.5255 -0.727634 -4.33885 -0.725746 10.0056 21.6565 -86.3676 -36.4015 137.873 -6.1977 16.2404 18.0861 14.8481 -0.584503 -5.04681 -4.79679 -1.12845 91.2558 -8.96074 70.3161 -0.124403 6.15638 2.78758 -0.802581 -9.55279 -39.149 7.50156 -8.83274 0.809973 81.7808 5.52552 63.1523 2.45304 -8.13219 -8.75944 1.16383 12.5152 -28.5676 -16.6616 
185.723 93.6281 182.55 -31.7542 31.9483 144.485 -70.1915 0 88.8779 158.137 51.6695 -66.2144 13.1928 23.4824 -3.88142 -177.949 21.1649 177.291 -140.047 58.9018 176.616 1.02022 -10.3573 -25.31 -82.6651 43.9818 -145.924 -2.95314 3.84226 -12.442 12.1769 -0.686922 -4.62678 -1.03713 9.18503 26.1519 -82.0692 -35.4034 134.312 -7.23246 20.6677 21.3518 14.2593 -0.471385 -4.30611 -3.4723 0.0625708 90.4463 -16.3308 77.3454 4.93572 4.62714 2.39234 -0.594489 -8.40523 -34.8234 9.22498 -12.1589 0.725908 81.4426 5.50963 62.379 3.36533 -8.40408 -11.1611 1.17217 12.2242 -28.304 -14.5797 
181.965 92.9919 179.522 -33.5095 33.4199 144.343 -70.1915 0 88.8779 158.342 51.5908 -67.3895 10.0639 23.1153 -1.57669 -177.845 21.1678 177.787 -139.805 58.6654 174.619 1.31796 -8.41687 -26.9539 -85.3769 47.1797 -135.998 -3.91441 2.96727 -10.9333 14.0302 -0.735693 -4.18788 -1.03575 8.01304 28.1681 -79.8466 -35.9123 132.06 -7.29003 21.3987 22.723 14.1224 -0.315822 -3.03291 -2.89955 -1.35158 88.3162 -42.1677 84.4725 34.5242 5.55278 4.80144 -0.667866 -9.21023 -37.4341 7.06883 -17.3934 -1.66884 80.5986 6.3141 63.2294 5.52798 -9.27031 -12.5474 1.18017 12.0474 -28.0983 -13.4897 
178.512 90.9241 176.265 -29.5672 35.6374 142.877 -70.1915 0 88.8779 158.902 55.4986 -66.9747 7.62336 24.2662 0.56284 -176.682 20.9994 178.944 -139.419 58.3768 173.234 1.65398 -6.7076 -29.2698 -91.3191 48.589 -122.899 -4.32641 4.80415 -8.82213 15.9871 -0.609346 -2.59227 -1.07297 7.84732 28.9954 -78.7382 -36.1964 130.617 -4.80928 16.6727 23.9144 12.8372 -0.24708 -2.67428 3.53837 1.46383 83.5791 -144.197 83.4036 141.867 6.53662 5.52173 -0.815712 -8.47947 -38.3188 14.173 -18.0295 0.921728 80.5581 7.62216 65.6449 6.44625 -9.01403 -13.1258 1.17295 12.3834 -29.2447 -13.5702 
174.327 89.3644 172.735 -30.2471 37.479 143.416 -70.1915 0 88.8779 158.844 56.4011 -67.4507 5.10863 24.005 4.01285 -175.524 20.5033 179.318 -134.898 56.3776 168.321 1.87307 -6.11299 -32.3802 -95.2495 46.3506 -111.19 -5.57816 5.5089 -5.73316 17.8938 -0.683825 -2.59847 -0.92041 7.10123 28.4856 -79.349 -36.4216 130.788 -5.38353 14.6329 29.7164 18.0373 -0.693366 -4.88925 7.21776 2.36709 80.0506 -159.612 79.0074 161.439 8.63442 7.0407 -1.17115 -9.40524 -42.4029 12.6381 -23.0151 0.932493 80.9245 8.49363 66.6113 8.25613 -9.33807 -13.7433 1.16892 12.7585 -30.5741 -13.4558 
169.985 88.1874 168.84 -31.9141 39.2844 144.946 -70.1915 0 88.8779 157.798 55.7423 -67.351 2.56678 22.7622 6.66748 -175.282 18.8939 179.279 -131.311 53.0032 164.399 1.95215 -5.88876 -33.2353 -94.2054 43.9026 -100.549 -7.64918 3.96979 -3.67544 17.1722 -0.652525 -2.57636 -0.682738 5.87534 27.6118 -80.086 -38.2478 135.649 -4.2781 9.03512 37.8829 16.9358 -0.300605 -2.46114 11.2009 4.33112 77.7783 -161.19 77.7069 162.465 8.94592 5.78097 -1.22068 -9.64895 -44.36 13.2146 -30.0175 0.816213 80.6233 8.11141 65.2947 10.2743 -9.57507 -14.7241 1.15719 13.1592 -31.9807 -13.2414 
165.187 87.254 165.012 -32.2205 41.1744 144.456 -70.1915 0 88.8779 156.465 55.5019 -67.1649 0.0621274 21.8949 7.0627 -175.26 17.1699 178.156 -130.199 50.026 162.554 1.79467 -6.07336 -30.0763 -92.8026 45.272 -90.7744 -10.0614 7.40674 2.45593 15.8479 -1.05752 -5.7749 -0.554872 5.2225 26.967 -81.507 -42.0492 141.235 0.88045 1.2235 50.7622 14.3225 -0.0408082 -0.70408 15.6705 7.90365 78.5782 -157.42 79.8192 157.574 9.80624 6.33722 -1.37372 -10.5169 -46.9633 11.5195 -37.6585 -0.455111 80.6717 7.00287 61.1474 14.9768 -9.6796 -14.969 1.15315 13.4635 -33.2649 -11.7241 
159.888 87.0359 160.765 -30.3349 41.3851 141.113 -70.1915 0 88.8779 155.149 57.7071 -67.5487 -3.44709 22.2318 7.62387 -173.415 17.0997 177.602 -130.906 49.7916 161.969 1.49803 -7.31457 -27.3473 -94.0555 46.7284 -80.1787 -12.7431 13.7723 7.82737 11.3093 -0.720402 -5.42992 -0.259862 4.0878 23.6353 -82.1515 -46.2403 146.486 11.0949 -4.32907 65.4022 11.9533 0.195777 1.60875 19.5777 11.5231 82.1339 -142.695 83.4398 138.616 8.52872 5.58432 -1.14953 -9.88975 -44.8811 12.5037 -45.5639 -3.43147 80.0498 5.02913 51.5967 20.021 -10.262 -17.3087 1.10391 12.7949 -31.0803 -12.0438 
154.193 86.8163 155.89 -27.3491 40.0631 137.905 -70.1915 0 88.8779 154.074 60.5273 -66.6621 -7.98796 23.3496 6.57552 -171.064 17.5647 174.546 -132.596 49.6405 159.502 1.24842 -8.68253 -24.8438 -95.4724 45.6646 -68.5026 -13.226 13.9975 7.31366 11.7642 -0.721022 -5.16548 0.173317 2.52393 13.9327 -79.4333 -50.3809 150.096 16.3035 -3.65905 77.7183 12.4232 0.293135 2.47173 22.8489 14.5513 85.9739 -117.374 85.2663 107.518 5.60761 3.5675 -0.705327 -9.32755 -41.3045 11.9094 -52.7594 -4.42266 79.8622 2.96674 39.872 20.7363 -9.7238 -17.7142 1.11502 11.5132 -27.1642 -11.2597 
147.035 86.608 150.275 -28.039 36.4962 135.314 -70.1915 0 88.8779 146.79 64.3998 -60.0086 -8.26369 24.1047 1.86895 -165.629 18.2779 170.304 -132.235 49.8574 158.524 0.984905 -10.6969 -22.6564 -96.1487 43.9439 -61.8603 -11.82 8.74096 3.13407 10.6905 -0.593218 -4.51941 0.262058 0.241292 9.17418 -74.5338 -46.124 151.148 20.7867 -2.42261 84.8975 10.8516 0.204717 1.92203 20.1195 14.3787 95.1157 -90.8037 85.7074 77.7281 4.84005 2.3005 -0.62723 -9.24755 -40.5894 11.5684 -59.6837 -11.9321 74.1599 2.94988 32.7131 22.7928 -8.22786 -16.8274 1.16713 9.13148 -19.0559 -11.1607 
139.88 86.5574 144.362 -29.3754 34.1565 136.922 -70.1915 0 88.8779 138.909 67.2907 -50.5301 -5.88407 24.1125 -0.531005 -161.916 18.4967 169.744 -132.276 49.9805 157.403 1.05759 -10.077 -23.1945 -95.8729 42.4286 -65.6331 -10.3574 3.81937 -0.606857 9.19087 -0.460673 -3.91917 0.256314 0.40912 10.2008 -66.5391 -41.2887 146.226 24.0629 -2.21929 86.2941 8.56425 0.391908 5.2764 14.2905 12.9397 99.9814 -80.198 85.5965 65.7806 4.07427 2.39225 -0.516569 -9.12285 -38.9749 10.281 -64.6008 -14.2337 70.9332 3.16086 32.5092 16.0749 -3.09085 -10.09 0.994177 -2.10412 2.12729 3.37874 
